HIERARCHY
ROOT hip
{
  OFFSET 0 0 0
  CHANNELS 6 Xposition Yposition Zposition Zrotation Yrotation Xrotation
  JOINT abdomen
  {
    OFFSET 0 20.6881 -0.73152
    CHANNELS 3 Zrotation Xrotation Yrotation
    JOINT chest
    {
      OFFSET 0 11.7043 -0.48768
      CHANNELS 3 Zrotation Xrotation Yrotation
      JOINT neck
      {
        OFFSET 0 22.1894 -2.19456
        CHANNELS 3 Zrotation Xrotation Yrotation
        JOINT head
        {
          OFFSET -0.24384 7.07133 1.2192
          CHANNELS 3 Zrotation Xrotation Yrotation
          JOINT leftEye
          {
            OFFSET 4.14528 8.04674 8.04672
            CHANNELS 3 Zrotation Xrotation Yrotation
            End Site
            {
              OFFSET 1 0 0
            }
          }
          JOINT rightEye
          {
            OFFSET -3.6576 8.04674 8.04672
            CHANNELS 3 Zrotation Xrotation Yrotation
            End Site
            {
              OFFSET 1 0 0
            }
          }
        }
      }
      JOINT rCollar
      {
        OFFSET -2.68224 19.2634 -4.8768
        CHANNELS 3 Zrotation Xrotation Yrotation
        JOINT rShldr
        {
          OFFSET -8.77824 -1.95073 1.46304
          CHANNELS 3 Zrotation Xrotation Yrotation
          JOINT rForeArm
          {
            OFFSET -28.1742 -1.7115 0.48768
            CHANNELS 3 Zrotation Xrotation Yrotation
            JOINT rHand
            {
              OFFSET -22.5879 0.773209 7.07136
              CHANNELS 3 Zrotation Xrotation Yrotation
              JOINT rThumb1
              {
                OFFSET -1.2192 -0.487915 3.41376
                CHANNELS 3 Zrotation Xrotation Yrotation
                JOINT rThumb2
                {
                  OFFSET -3.37035 -0.52449 3.41376
                  CHANNELS 3 Zrotation Xrotation Yrotation
                  End Site
                  {
                    OFFSET -1.78271 -1.18214 1.43049
                  }
                }
              }
              JOINT rIndex1
              {
                OFFSET -7.75947 0.938293 5.60832
                CHANNELS 3 Zrotation Xrotation Yrotation
                JOINT rIndex2
                {
                  OFFSET -2.54057 -0.884171 1.56538
                  CHANNELS 3 Zrotation Xrotation Yrotation
                  End Site
                  {
                    OFFSET -1.62519 -0.234802 1.16502
                  }
                }
              }
              JOINT rMid1
              {
                OFFSET -8.24714 1.18213 3.41376
                CHANNELS 3 Zrotation Xrotation Yrotation
                JOINT rMid2
                {
                  OFFSET -3.10165 -0.590103 1.0647
                  CHANNELS 3 Zrotation Xrotation Yrotation
                  End Site
                  {
                    OFFSET -2.48547 -0.328903 0.83742
                  }
                }
              }
              JOINT rRing1
              {
                OFFSET -8.82822 0.546677 1.51678
                CHANNELS 3 Zrotation Xrotation Yrotation
                JOINT rRing2
                {
                  OFFSET -2.60934 -0.819778 -0.0198488
                  CHANNELS 3 Zrotation Xrotation Yrotation
                  End Site
                  {
                    OFFSET -2.33842 -0.294052 0.168128
                  }
                }
              }
              JOINT rPinky1
              {
                OFFSET -8.27202 -0.0477905 -0.4584
                CHANNELS 3 Zrotation Xrotation Yrotation
                JOINT rPinky2
                {
                  OFFSET -1.82734 -0.647385 -0.700984
                  CHANNELS 3 Zrotation Xrotation Yrotation
                  End Site
                  {
                    OFFSET -1.69225 -0.51767 -0.607171
                  }
                }
              }
            }
          }
        }
      }
      JOINT lCollar
      {
        OFFSET 2.68224 19.2634 -4.8768
        CHANNELS 3 Zrotation Xrotation Yrotation
        JOINT lShldr
        {
          OFFSET 8.77824 -1.95073 1.46304
          CHANNELS 3 Zrotation Xrotation Yrotation
          JOINT lForeArm
          {
            OFFSET 28.1742 -1.7115 0.48768
            CHANNELS 3 Zrotation Xrotation Yrotation
            JOINT lHand
            {
              OFFSET 22.5879 0.773209 7.07136
              CHANNELS 3 Zrotation Xrotation Yrotation
              JOINT lThumb1
              {
                OFFSET 1.2192 -0.487915 3.41376
                CHANNELS 3 Zrotation Xrotation Yrotation
                JOINT lThumb2
                {
                  OFFSET 3.37035 -0.52449 3.41376
                  CHANNELS 3 Zrotation Xrotation Yrotation
                  End Site
                  {
                    OFFSET 1.78271 -1.18214 1.43049
                  }
                }
              }
              JOINT lIndex1
              {
                OFFSET 7.75947 0.938293 5.60832
                CHANNELS 3 Zrotation Xrotation Yrotation
                JOINT lIndex2
                {
                  OFFSET 2.54057 -0.884171 1.56538
                  CHANNELS 3 Zrotation Xrotation Yrotation
                  End Site
                  {
                    OFFSET 1.62519 -0.234802 1.16502
                  }
                }
              }
              JOINT lMid1
              {
                OFFSET 8.24714 1.18213 3.41376
                CHANNELS 3 Zrotation Xrotation Yrotation
                JOINT lMid2
                {
                  OFFSET 3.10165 -0.590103 1.0647
                  CHANNELS 3 Zrotation Xrotation Yrotation
                  End Site
                  {
                    OFFSET 2.48547 -0.328903 0.83742
                  }
                }
              }
              JOINT lRing1
              {
                OFFSET 8.82822 0.546677 1.51678
                CHANNELS 3 Zrotation Xrotation Yrotation
                JOINT lRing2
                {
                  OFFSET 2.60934 -0.819778 -0.0198488
                  CHANNELS 3 Zrotation Xrotation Yrotation
                  End Site
                  {
                    OFFSET 2.33842 -0.294052 0.168128
                  }
                }
              }
              JOINT lPinky1
              {
                OFFSET 8.27202 -0.0477905 -0.4584
                CHANNELS 3 Zrotation Xrotation Yrotation
                JOINT lPinky2
                {
                  OFFSET 1.82734 -0.647385 -0.700984
                  CHANNELS 3 Zrotation Xrotation Yrotation
                  End Site
                  {
                    OFFSET 1.69225 -0.51767 -0.607171
                  }
                }
              }
            }
          }
        }
      }
    }
  }
  JOINT rButtock
  {
    OFFSET -8.77824 4.35084 1.2192
    CHANNELS 3 Zrotation Xrotation Yrotation
    JOINT rThigh
    {
      OFFSET 0 -1.70687 -2.19456
      CHANNELS 3 Zrotation Xrotation Yrotation
      JOINT rShin
      {
        OFFSET 0 -36.8199 0.73152
        CHANNELS 3 Zrotation Xrotation Yrotation
        JOINT rFoot
        {
          OFFSET 0.73152 -45.1104 -5.12064
          CHANNELS 3 Zrotation Xrotation Yrotation
          End Site
          {
            OFFSET -1.1221 -3.69964 12.103
          }
        }
      }
    }
  }
  JOINT lButtock
  {
    OFFSET 8.77824 4.35084 1.2192
    CHANNELS 3 Zrotation Xrotation Yrotation
    JOINT lThigh
    {
      OFFSET 0 -1.70687 -2.19456
      CHANNELS 3 Zrotation Xrotation Yrotation
      JOINT lShin
      {
        OFFSET 0 -36.8199 0.73152
        CHANNELS 3 Zrotation Xrotation Yrotation
        JOINT lFoot
        {
          OFFSET -0.73152 -45.1104 -5.12064
          CHANNELS 3 Zrotation Xrotation Yrotation
          End Site
          {
            OFFSET 1.1221 -3.69964 12.103
          }
        }
      }
    }
  }
}
MOTION
Frames:	7
Frame Time:	0.00833333
-14.4273 77.8888 84.0997 -0.0 0.0 -0.0 -0.0 -4.771896 -180.0 -0.0 -4.771896 180.0 -8.127505 9.324006 -75.254595 11.06814 5.502965 75.384894 -0.0 0.0 -0.0 -0.0 0.0 -0.0 -158.468064 -30.055529 166.919939 35.478186 -47.447905 26.069294 2.793505 -1.249644 -33.451677 167.848072 -24.027313 142.638242 116.309427 -50.010152 56.954107 -12.700951 -73.417214 -36.201705 -151.353117 -17.158427 121.133109 -18.07786 49.802241 15.74776 -10.975806 25.789868 7.640203 179.425566 -48.427004 143.702969 -0.021291 -1.725169 -0.542387 1.649098 -33.823968 -3.594063 16.516138 57.859103 12.547749 -26.41722 -38.435438 -26.023975 -3.542039 -62.05305 13.039183 136.315441 65.501508 -134.602264 -179.172619 59.714196 -148.624158 -172.180592 -12.102612 -144.403327 -88.928376 -50.831327 -37.599672 154.810677 -10.850521 -119.47115 152.812211 -19.873325 -121.572634 -166.871877 -64.686585 -96.689301 169.08961 -33.247392 -145.374931 5.635596 26.24222 -8.100847 145.122644 1.080631 179.467798 -22.405985 32.988403 5.512137 81.323898 -51.182704 79.740822 149.211142 23.58387 147.783972 -0.0 0.0 -0.0 -0.0 -2.27635 -180.0 -7.141193 -6.527402 -102.138307 -141.52365 -59.886605 116.494483 -0.0 0.0 -0.0 -0.0 -2.27635 -180.0 5.864878 -4.414665 123.647879 -129.230928 -80.61176 -27.366524
-14.3418 77.9666 84.183 -0.0 -0.0 -0.0 -0.0 0.0 -0.0 0.0 -0.0 -0.0 -7.581239 6.612817 -59.554118 9.527666 3.204248 59.725638 0.0 -0.0 -0.0 0.0 -0.0 -0.0 -155.716846 -4.925325 162.135615 98.073336 -75.665875 75.836374 165.886799 -7.526197 167.037119 -62.590994 72.368291 44.691783 -93.743665 37.963835 53.548561 -130.336168 -18.969748 76.802123 -27.421557 30.63922 20.098782 59.045965 -64.039364 20.82599 -125.644075 49.839986 115.274123 -7.593026 32.999765 5.631545 0.000474 0.063711 0.020016 -164.829096 -64.146945 -178.668819 54.223266 87.258986 -14.504216 -138.064431 -12.158004 -132.482385 -3.268835 -26.755826 5.241683 -18.882766 -81.983523 -17.889784 -91.819842 -87.487032 -53.721511 -170.519203 -16.910155 -143.821066 -164.137559 -30.817906 -84.868874 26.404997 -38.374885 10.91404 153.514553 -21.181485 -121.760193 23.581917 51.756023 -21.214797 -12.028733 -37.299308 3.218008 -8.843999 -22.681168 -0.617945 145.119465 0.267731 179.212447 139.63943 79.29493 -164.360545 146.184456 15.332341 142.71147 150.566067 28.449387 144.798351 0.0 0.0 -0.0 -0.0 -0.0 -0.0 -4.919407 3.500227 -54.588129 -17.379281 -28.079948 60.986517 0.0 0.0 -0.0 -0.0 -0.0 -0.0 5.612052 5.774585 75.378063 -142.786902 17.728062 59.155027
-14.246900000000002 78.0493 84.2714 -0.0 0.0 -0.0 0.0 0.0 0.0 0.0 -0.0 0.0 -7.18087 5.633523 -53.581742 8.784862 2.451204 53.7472 0.0 -0.0 -0.0 0.0 -0.0 -0.0 3.268835 -26.755826 -5.241683 10.006112 -75.324419 9.588742 107.744065 -85.58083 69.712822 172.469983 -11.239052 144.491561 -173.770775 -11.439911 89.891324 -77.887606 6.740567 25.375146 -138.493513 4.896353 114.8648 -159.084497 -29.39267 123.878001 -151.476684 17.84174 137.538824 6.266331 -0.135636 -1.124623 0.000474 0.063775 0.020036 -166.943793 -31.858903 175.530012 -156.907843 55.701882 -150.347025 3.266585 0.308802 -3.35344 80.1661 68.371792 -83.260848 155.991316 -7.170251 -179.492702 -122.609956 -80.444742 -85.610706 -176.729101 2.080391 -145.29294 99.394511 37.101251 -57.49209 18.66753 -12.813582 -30.749546 174.891031 -54.095324 -119.33093 72.998328 50.578684 -66.636452 164.637861 -19.283648 -144.733631 -16.017457 -27.771866 0.350466 72.757246 -72.143382 89.772159 128.359416 56.743756 -145.537024 79.224717 -51.406839 77.662123 84.627836 -55.32805 85.202346 -0.0 0.0 -0.0 -0.0 -0.0 -0.0 -5.240399 4.225182 -61.482581 -40.54718 -62.465687 59.330117 -0.0 0.0 -0.0 -0.0 -0.0 -0.0 -7.497265 6.071566 -94.236337 10.619467 -14.065821 101.4968
-14.1425 78.1313 84.3626 0.0 -0.0 -0.0 -0.0 -4.771896 -180.0 0.0 -4.771896 180.0 10.313685 4.208854 66.928732 -7.925228 7.840827 -66.764752 0.0 -0.0 -0.0 0.0 -0.0 -0.0 -158.468064 -30.055529 166.919939 35.478186 -47.447905 26.069294 6.953848 12.749419 -34.351187 172.809012 -10.218468 144.58975 -174.193348 -11.857374 89.870273 9.497727 -60.231813 11.35922 -90.225558 41.072425 75.796697 11.259482 -11.614804 -15.822117 -0.057679 0.167876 0.032027 -0.180903 0.539304 0.06251 -145.064528 -3.224168 -178.113517 -107.917318 85.809394 132.092619 -132.044526 -18.854402 -129.578565 46.321868 82.582576 -6.607898 -3.268835 -26.755826 5.241683 -6.327574 -68.067083 -6.535947 162.860352 -14.841898 -157.255609 -114.906145 -68.598527 -98.181375 171.706035 -9.388422 -89.948992 8.388477 -49.172995 -5.4382 138.493513 4.896353 -114.8648 -172.434867 -65.318537 -106.574662 -23.903801 -61.333833 -1.399383 -19.65627 -42.861205 -3.979055 0.021306 -1.72602 0.542654 167.032085 -34.585437 -175.460348 -0.098846 0.258289 -0.091255 -17.125989 58.791379 -9.549272 -0.0 0.0 -0.0 -0.0 -2.27635 -180.0 -5.864878 -4.414665 -123.647879 60.037014 -77.973077 -37.142903 -0.0 0.0 -0.0 -0.0 -2.27635 -180.0 7.141193 -6.527402 102.138307 8.785748 23.82073 71.765875
-14.0289 78.2076 84.4556 -0.0 -0.0 -0.0 -0.0 0.0 -0.0 0.0 -0.0 -0.0 -7.581239 6.612817 -59.554118 9.527666 3.204248 59.725638 0.0 -0.0 -0.0 0.0 -0.0 -0.0 -158.468064 -30.055529 166.919939 -150.70725 20.472704 155.502997 173.857764 -5.775482 145.082986 179.023488 9.409784 145.313905 -178.927535 -16.453687 89.421826 -40.569414 -21.14479 2.132736 -151.353117 -17.158427 121.133109 -26.376667 53.416709 22.999117 -169.08961 -33.247392 145.374931 -86.756917 62.251756 81.150723 -145.099706 -1.521107 -178.650165 22.356941 39.910501 -4.093185 -11.662826 -23.13088 -11.070095 -159.764745 55.097061 -151.729923 -3.542039 -62.05305 13.039183 101.485717 72.577615 -101.03473 -53.824522 -74.416839 -46.834382 19.013302 47.721508 -6.706794 -71.831195 -48.263725 -25.791675 90.917214 39.162287 -56.853309 13.870766 18.815147 -9.290772 141.232526 31.384578 -101.489485 36.036059 51.723116 -29.832321 40.069278 60.2871 -32.287882 145.118942 0.185466 179.186604 45.330919 87.634697 -68.877687 23.391137 -36.34947 22.493225 52.240572 -54.511543 51.089364 0.0 0.0 -0.0 -0.0 -0.0 -0.0 -4.919407 3.500227 -54.588129 -17.379281 -28.079948 60.986517 0.0 0.0 -0.0 -0.0 -0.0 -0.0 5.612052 5.774585 75.378063 -142.786902 17.728062 59.155027
-13.902599999999998 78.2766 84.5486 -0.0 0.0 -0.0 -0.0 -4.771896 -180.0 -0.0 -4.771896 180.0 -8.127505 9.324006 -75.254595 11.06814 5.502965 75.384894 0.0 0.0 0.0 0.0 0.0 0.0 -158.468064 -30.055529 166.919939 53.467269 -62.875748 39.880326 -176.746632 -33.297581 178.759372 -3.228813 10.308316 -0.062442 83.25393 -50.258079 33.616048 -15.247002 -39.58119 -29.360367 -179.421156 -58.426425 117.044829 -58.983417 50.607251 54.537251 6.908911 -21.623998 -2.809719 8.124213 -22.814395 -0.228231 -74.389998 -72.134083 -91.483577 18.066496 -20.609319 3.706321 -140.025667 -2.440752 -137.137619 -145.612048 14.254531 -143.081577 -3.542039 -62.05305 13.039183 136.315441 65.501508 -134.602264 179.229257 62.662395 -147.322943 -171.192506 -14.994169 -144.072214 3.030664 2.96398 -0.542007 -18.763892 -26.772968 11.136663 145.90645 -7.259791 -118.949872 179.922103 -59.470392 -109.886268 -37.459372 -72.537098 -11.712209 155.496241 15.875513 -136.45776 70.379629 -72.130165 87.279981 153.243674 -14.420915 -167.456083 -8.368306 26.426704 -7.36241 149.007111 8.224159 141.509855 -0.0 0.0 -0.0 -0.0 -2.27635 -180.0 -7.141193 -6.527402 -102.138307 -141.52365 -59.886605 116.494483 -0.0 0.0 -0.0 -0.0 -2.27635 -180.0 5.864878 -4.414665 123.647879 -129.230928 -80.61176 -27.366524
-13.7603 78.3347 84.64 -0.0 -0.0 -0.0 -0.0 0.0 -0.0 0.0 -0.0 -0.0 -7.581239 6.612817 -59.554118 9.527666 3.204248 59.725638 0.0 -0.0 -0.0 0.0 -0.0 -0.0 -155.716846 -4.925325 162.135615 -155.826199 -4.270279 161.778275 178.374639 8.693851 145.461357 174.473717 -5.086213 144.987896 -171.653675 -9.336187 89.949478 -91.007806 10.701644 35.015558 10.281995 -18.182542 -4.585706 -90.849195 44.099486 63.873116 -151.476684 17.84174 137.538824 -160.076394 -4.125333 144.362579 -145.099691 -1.522044 -178.64987 -52.315899 87.377302 76.022047 -148.069978 21.784714 -144.327569 -145.268133 11.592928 -141.292668 -3.268835 -26.755826 5.241683 -18.882766 -81.983523 -17.889784 -91.819842 -87.487032 -53.721511 -170.519203 -16.910155 -143.821066 -83.25393 -50.258079 -33.616048 56.171313 30.535026 -17.723496 158.401436 -30.156085 -122.604732 -42.612567 -36.395337 7.197757 -89.035113 -81.393384 -59.759886 83.509595 61.076457 -75.342336 145.118942 0.185466 179.186604 -20.510871 -0.529149 9.104253 -31.497272 83.083168 -6.663937 156.694913 34.163137 143.971619 0.0 0.0 -0.0 -0.0 -0.0 -0.0 -4.919407 3.500227 -54.588129 -17.379281 -28.079948 60.986517 0.0 0.0 -0.0 -0.0 -0.0 -0.0 5.612052 5.774585 75.378063 -142.786902 17.728062 59.155027
